<mxfile host="app.diagrams.net" modified="2022-06-08T15:28:02.747Z" agent="5.0 (Windows NT 10.0; Win64; x64) AppleWebKit/537.36 (KHTML, like Gecko) Chrome/102.0.5005.63 Safari/537.36" etag="NUKpSx1sUfMWlP063lbd" version="19.0.2" type="github">
  <diagram id="kKrO1dFDIQRv364VOOFu" name="Page-1">
    <mxGraphModel dx="1937" dy="1774" grid="1" gridSize="10" guides="1" tooltips="1" connect="1" arrows="1" fold="1" page="1" pageScale="1" pageWidth="827" pageHeight="1169" math="0" shadow="0">
      <root>
        <mxCell id="0" />
        <mxCell id="1" parent="0" />
        <mxCell id="9wlGWYBTpFo8Ic_cvUNs-2" style="edgeStyle=orthogonalEdgeStyle;rounded=0;orthogonalLoop=1;jettySize=auto;html=1;entryX=0.5;entryY=0;entryDx=0;entryDy=0;" edge="1" parent="1" source="9wlGWYBTpFo8Ic_cvUNs-1" target="9wlGWYBTpFo8Ic_cvUNs-3">
          <mxGeometry relative="1" as="geometry">
            <mxPoint x="130" y="140" as="targetPoint" />
          </mxGeometry>
        </mxCell>
        <mxCell id="9wlGWYBTpFo8Ic_cvUNs-1" value="start" style="strokeWidth=2;html=1;shape=mxgraph.flowchart.terminator;whiteSpace=wrap;" vertex="1" parent="1">
          <mxGeometry x="80" y="30" width="100" height="60" as="geometry" />
        </mxCell>
        <mxCell id="9wlGWYBTpFo8Ic_cvUNs-4" style="edgeStyle=orthogonalEdgeStyle;rounded=0;orthogonalLoop=1;jettySize=auto;html=1;" edge="1" parent="1" source="9wlGWYBTpFo8Ic_cvUNs-3" target="9wlGWYBTpFo8Ic_cvUNs-5">
          <mxGeometry relative="1" as="geometry">
            <mxPoint x="130" y="250" as="targetPoint" />
          </mxGeometry>
        </mxCell>
        <mxCell id="9wlGWYBTpFo8Ic_cvUNs-3" value="vector&lt;string&gt; Operator_Stack;&#xa;	queue&lt;string&gt; PostFix_Queue;&#xa;	queue&lt;string&gt; PostFix_Queue1;&#xa;	string str;" style="rounded=1;whiteSpace=wrap;html=1;absoluteArcSize=1;arcSize=14;strokeWidth=2;" vertex="1" parent="1">
          <mxGeometry x="42.5" y="130" width="175" height="60" as="geometry" />
        </mxCell>
        <mxCell id="9wlGWYBTpFo8Ic_cvUNs-6" style="edgeStyle=orthogonalEdgeStyle;rounded=0;orthogonalLoop=1;jettySize=auto;html=1;" edge="1" parent="1" source="9wlGWYBTpFo8Ic_cvUNs-5" target="9wlGWYBTpFo8Ic_cvUNs-7">
          <mxGeometry relative="1" as="geometry">
            <mxPoint x="130" y="310" as="targetPoint" />
          </mxGeometry>
        </mxCell>
        <mxCell id="9wlGWYBTpFo8Ic_cvUNs-5" value="cin &gt;&gt; str;" style="shape=parallelogram;html=1;strokeWidth=2;perimeter=parallelogramPerimeter;whiteSpace=wrap;rounded=1;arcSize=12;size=0.23;" vertex="1" parent="1">
          <mxGeometry x="80" y="220" width="100" height="60" as="geometry" />
        </mxCell>
        <mxCell id="9wlGWYBTpFo8Ic_cvUNs-9" style="edgeStyle=orthogonalEdgeStyle;rounded=0;orthogonalLoop=1;jettySize=auto;html=1;entryX=0.5;entryY=0;entryDx=0;entryDy=0;entryPerimeter=0;" edge="1" parent="1" source="9wlGWYBTpFo8Ic_cvUNs-7" target="9wlGWYBTpFo8Ic_cvUNs-8">
          <mxGeometry relative="1" as="geometry" />
        </mxCell>
        <mxCell id="9wlGWYBTpFo8Ic_cvUNs-7" value="string str1=&quot;(&quot;+str+&quot;)&quot;;&lt;br&gt;PostfixNotationMake(str1, Operator_Stack, PostFix_Queue);" style="rounded=1;whiteSpace=wrap;html=1;absoluteArcSize=1;arcSize=14;strokeWidth=2;" vertex="1" parent="1">
          <mxGeometry x="30" y="330" width="200" height="70" as="geometry" />
        </mxCell>
        <mxCell id="9wlGWYBTpFo8Ic_cvUNs-11" style="edgeStyle=orthogonalEdgeStyle;rounded=0;orthogonalLoop=1;jettySize=auto;html=1;entryX=0.5;entryY=0;entryDx=0;entryDy=0;entryPerimeter=0;" edge="1" parent="1" source="9wlGWYBTpFo8Ic_cvUNs-8" target="9wlGWYBTpFo8Ic_cvUNs-10">
          <mxGeometry relative="1" as="geometry" />
        </mxCell>
        <mxCell id="9wlGWYBTpFo8Ic_cvUNs-8" value="!PostFix_Queue.empty()" style="strokeWidth=2;html=1;shape=mxgraph.flowchart.loop_limit;whiteSpace=wrap;" vertex="1" parent="1">
          <mxGeometry x="60" y="450" width="140" height="60" as="geometry" />
        </mxCell>
        <mxCell id="9wlGWYBTpFo8Ic_cvUNs-12" style="edgeStyle=orthogonalEdgeStyle;rounded=0;orthogonalLoop=1;jettySize=auto;html=1;" edge="1" parent="1" source="9wlGWYBTpFo8Ic_cvUNs-10" target="9wlGWYBTpFo8Ic_cvUNs-13">
          <mxGeometry relative="1" as="geometry">
            <mxPoint x="130" y="640" as="targetPoint" />
          </mxGeometry>
        </mxCell>
        <mxCell id="9wlGWYBTpFo8Ic_cvUNs-10" value="cout &lt;&lt; PostFix_Queue.front();" style="strokeWidth=2;html=1;shape=mxgraph.flowchart.document2;whiteSpace=wrap;size=0.25;" vertex="1" parent="1">
          <mxGeometry x="40" y="550" width="180" height="60" as="geometry" />
        </mxCell>
        <mxCell id="9wlGWYBTpFo8Ic_cvUNs-14" style="edgeStyle=orthogonalEdgeStyle;rounded=0;orthogonalLoop=1;jettySize=auto;html=1;entryX=0.5;entryY=0;entryDx=0;entryDy=0;entryPerimeter=0;" edge="1" parent="1" source="9wlGWYBTpFo8Ic_cvUNs-13" target="9wlGWYBTpFo8Ic_cvUNs-17">
          <mxGeometry relative="1" as="geometry">
            <mxPoint x="130" y="740" as="targetPoint" />
          </mxGeometry>
        </mxCell>
        <mxCell id="9wlGWYBTpFo8Ic_cvUNs-13" value="PostFix_Queue1.push(PostFix_Queue.front());&#xa;		PostFix_Queue.pop();" style="rounded=1;whiteSpace=wrap;html=1;absoluteArcSize=1;arcSize=14;strokeWidth=2;" vertex="1" parent="1">
          <mxGeometry x="5" y="650" width="250" height="50" as="geometry" />
        </mxCell>
        <mxCell id="9wlGWYBTpFo8Ic_cvUNs-18" style="edgeStyle=orthogonalEdgeStyle;rounded=0;orthogonalLoop=1;jettySize=auto;html=1;" edge="1" parent="1" source="9wlGWYBTpFo8Ic_cvUNs-17" target="9wlGWYBTpFo8Ic_cvUNs-19">
          <mxGeometry relative="1" as="geometry">
            <mxPoint x="130" y="850" as="targetPoint" />
          </mxGeometry>
        </mxCell>
        <mxCell id="9wlGWYBTpFo8Ic_cvUNs-17" value="cout &lt;&lt; endl;" style="strokeWidth=2;html=1;shape=mxgraph.flowchart.document2;whiteSpace=wrap;size=0.25;" vertex="1" parent="1">
          <mxGeometry x="80" y="740" width="100" height="60" as="geometry" />
        </mxCell>
        <mxCell id="9wlGWYBTpFo8Ic_cvUNs-19" value="PostfixNotation(PostFix_Queue1);&#xa;	return 0;" style="rounded=1;whiteSpace=wrap;html=1;absoluteArcSize=1;arcSize=14;strokeWidth=2;" vertex="1" parent="1">
          <mxGeometry x="35" y="840" width="190" height="40" as="geometry" />
        </mxCell>
        <mxCell id="9wlGWYBTpFo8Ic_cvUNs-21" style="edgeStyle=orthogonalEdgeStyle;rounded=0;orthogonalLoop=1;jettySize=auto;html=1;entryX=0.5;entryY=0;entryDx=0;entryDy=0;entryPerimeter=0;" edge="1" parent="1" source="9wlGWYBTpFo8Ic_cvUNs-20" target="9wlGWYBTpFo8Ic_cvUNs-23">
          <mxGeometry relative="1" as="geometry">
            <mxPoint x="420" y="120" as="targetPoint" />
          </mxGeometry>
        </mxCell>
        <mxCell id="9wlGWYBTpFo8Ic_cvUNs-20" value="bool OperatorCheck(char ch1, char ch2)" style="rounded=1;whiteSpace=wrap;html=1;absoluteArcSize=1;arcSize=14;strokeWidth=2;" vertex="1" parent="1">
          <mxGeometry x="300" y="25" width="240" height="45" as="geometry" />
        </mxCell>
        <mxCell id="9wlGWYBTpFo8Ic_cvUNs-24" value="false" style="edgeStyle=orthogonalEdgeStyle;rounded=0;orthogonalLoop=1;jettySize=auto;html=1;" edge="1" parent="1" source="9wlGWYBTpFo8Ic_cvUNs-23" target="9wlGWYBTpFo8Ic_cvUNs-25">
          <mxGeometry relative="1" as="geometry">
            <mxPoint x="420" y="290" as="targetPoint" />
          </mxGeometry>
        </mxCell>
        <mxCell id="9wlGWYBTpFo8Ic_cvUNs-28" value="true" style="edgeStyle=orthogonalEdgeStyle;rounded=0;orthogonalLoop=1;jettySize=auto;html=1;entryX=0;entryY=0.5;entryDx=0;entryDy=0;" edge="1" parent="1" source="9wlGWYBTpFo8Ic_cvUNs-23" target="9wlGWYBTpFo8Ic_cvUNs-29">
          <mxGeometry relative="1" as="geometry">
            <mxPoint x="560" y="190" as="targetPoint" />
          </mxGeometry>
        </mxCell>
        <mxCell id="9wlGWYBTpFo8Ic_cvUNs-23" value="ch1 == &#39;*&#39; || ch1 == &#39;/&#39;" style="strokeWidth=2;html=1;shape=mxgraph.flowchart.decision;whiteSpace=wrap;" vertex="1" parent="1">
          <mxGeometry x="345" y="140" width="150" height="100" as="geometry" />
        </mxCell>
        <mxCell id="9wlGWYBTpFo8Ic_cvUNs-26" value="false" style="edgeStyle=orthogonalEdgeStyle;rounded=0;orthogonalLoop=1;jettySize=auto;html=1;" edge="1" parent="1" source="9wlGWYBTpFo8Ic_cvUNs-25" target="9wlGWYBTpFo8Ic_cvUNs-27">
          <mxGeometry relative="1" as="geometry">
            <mxPoint x="420" y="490" as="targetPoint" />
          </mxGeometry>
        </mxCell>
        <mxCell id="9wlGWYBTpFo8Ic_cvUNs-31" value="true" style="edgeStyle=orthogonalEdgeStyle;rounded=0;orthogonalLoop=1;jettySize=auto;html=1;entryX=0;entryY=0.5;entryDx=0;entryDy=0;" edge="1" parent="1" source="9wlGWYBTpFo8Ic_cvUNs-25" target="9wlGWYBTpFo8Ic_cvUNs-30">
          <mxGeometry relative="1" as="geometry" />
        </mxCell>
        <mxCell id="9wlGWYBTpFo8Ic_cvUNs-25" value="ch1 == &#39;+&#39; || ch1 == &#39;-&#39;" style="strokeWidth=2;html=1;shape=mxgraph.flowchart.decision;whiteSpace=wrap;" vertex="1" parent="1">
          <mxGeometry x="345" y="280" width="150" height="100" as="geometry" />
        </mxCell>
        <mxCell id="9wlGWYBTpFo8Ic_cvUNs-33" value="true" style="edgeStyle=orthogonalEdgeStyle;rounded=0;orthogonalLoop=1;jettySize=auto;html=1;entryX=0;entryY=0.5;entryDx=0;entryDy=0;" edge="1" parent="1" source="9wlGWYBTpFo8Ic_cvUNs-27" target="9wlGWYBTpFo8Ic_cvUNs-32">
          <mxGeometry relative="1" as="geometry" />
        </mxCell>
        <mxCell id="9wlGWYBTpFo8Ic_cvUNs-45" style="edgeStyle=orthogonalEdgeStyle;rounded=0;orthogonalLoop=1;jettySize=auto;html=1;entryX=0.5;entryY=0;entryDx=0;entryDy=0;entryPerimeter=0;" edge="1" parent="1" source="9wlGWYBTpFo8Ic_cvUNs-27" target="9wlGWYBTpFo8Ic_cvUNs-36">
          <mxGeometry relative="1" as="geometry" />
        </mxCell>
        <mxCell id="9wlGWYBTpFo8Ic_cvUNs-27" value="ch1 == &#39;(&#39; || ch1 == &#39;)&#39;" style="strokeWidth=2;html=1;shape=mxgraph.flowchart.decision;whiteSpace=wrap;" vertex="1" parent="1">
          <mxGeometry x="350" y="420" width="140" height="100" as="geometry" />
        </mxCell>
        <mxCell id="9wlGWYBTpFo8Ic_cvUNs-29" value="ch1 = 2;" style="rounded=1;whiteSpace=wrap;html=1;absoluteArcSize=1;arcSize=14;strokeWidth=2;" vertex="1" parent="1">
          <mxGeometry x="540" y="165" width="100" height="50" as="geometry" />
        </mxCell>
        <mxCell id="9wlGWYBTpFo8Ic_cvUNs-30" value="ch1 = 1;" style="rounded=1;whiteSpace=wrap;html=1;absoluteArcSize=1;arcSize=14;strokeWidth=2;" vertex="1" parent="1">
          <mxGeometry x="540" y="305" width="100" height="50" as="geometry" />
        </mxCell>
        <mxCell id="9wlGWYBTpFo8Ic_cvUNs-32" value="ch1 = 0;" style="rounded=1;whiteSpace=wrap;html=1;absoluteArcSize=1;arcSize=14;strokeWidth=2;" vertex="1" parent="1">
          <mxGeometry x="540" y="445" width="100" height="50" as="geometry" />
        </mxCell>
        <mxCell id="9wlGWYBTpFo8Ic_cvUNs-34" value="false" style="edgeStyle=orthogonalEdgeStyle;rounded=0;orthogonalLoop=1;jettySize=auto;html=1;" edge="1" parent="1" source="9wlGWYBTpFo8Ic_cvUNs-36" target="9wlGWYBTpFo8Ic_cvUNs-39">
          <mxGeometry relative="1" as="geometry">
            <mxPoint x="420" y="735" as="targetPoint" />
          </mxGeometry>
        </mxCell>
        <mxCell id="9wlGWYBTpFo8Ic_cvUNs-35" value="true" style="edgeStyle=orthogonalEdgeStyle;rounded=0;orthogonalLoop=1;jettySize=auto;html=1;entryX=0;entryY=0.5;entryDx=0;entryDy=0;" edge="1" parent="1" source="9wlGWYBTpFo8Ic_cvUNs-36" target="9wlGWYBTpFo8Ic_cvUNs-42">
          <mxGeometry relative="1" as="geometry">
            <mxPoint x="560" y="635" as="targetPoint" />
          </mxGeometry>
        </mxCell>
        <mxCell id="9wlGWYBTpFo8Ic_cvUNs-36" value="ch1 == &#39;*&#39; || ch1 == &#39;/&#39;" style="strokeWidth=2;html=1;shape=mxgraph.flowchart.decision;whiteSpace=wrap;" vertex="1" parent="1">
          <mxGeometry x="345" y="585" width="150" height="100" as="geometry" />
        </mxCell>
        <mxCell id="9wlGWYBTpFo8Ic_cvUNs-37" value="false" style="edgeStyle=orthogonalEdgeStyle;rounded=0;orthogonalLoop=1;jettySize=auto;html=1;" edge="1" parent="1" source="9wlGWYBTpFo8Ic_cvUNs-39" target="9wlGWYBTpFo8Ic_cvUNs-41">
          <mxGeometry relative="1" as="geometry">
            <mxPoint x="420" y="935" as="targetPoint" />
          </mxGeometry>
        </mxCell>
        <mxCell id="9wlGWYBTpFo8Ic_cvUNs-38" value="true" style="edgeStyle=orthogonalEdgeStyle;rounded=0;orthogonalLoop=1;jettySize=auto;html=1;entryX=0;entryY=0.5;entryDx=0;entryDy=0;" edge="1" parent="1" source="9wlGWYBTpFo8Ic_cvUNs-39" target="9wlGWYBTpFo8Ic_cvUNs-43">
          <mxGeometry relative="1" as="geometry" />
        </mxCell>
        <mxCell id="9wlGWYBTpFo8Ic_cvUNs-39" value="ch1 == &#39;+&#39; || ch1 == &#39;-&#39;" style="strokeWidth=2;html=1;shape=mxgraph.flowchart.decision;whiteSpace=wrap;" vertex="1" parent="1">
          <mxGeometry x="345" y="725" width="150" height="100" as="geometry" />
        </mxCell>
        <mxCell id="9wlGWYBTpFo8Ic_cvUNs-40" value="true" style="edgeStyle=orthogonalEdgeStyle;rounded=0;orthogonalLoop=1;jettySize=auto;html=1;entryX=0;entryY=0.5;entryDx=0;entryDy=0;" edge="1" parent="1" source="9wlGWYBTpFo8Ic_cvUNs-41" target="9wlGWYBTpFo8Ic_cvUNs-44">
          <mxGeometry relative="1" as="geometry" />
        </mxCell>
        <mxCell id="9wlGWYBTpFo8Ic_cvUNs-46" style="edgeStyle=orthogonalEdgeStyle;rounded=0;orthogonalLoop=1;jettySize=auto;html=1;" edge="1" parent="1" source="9wlGWYBTpFo8Ic_cvUNs-41" target="9wlGWYBTpFo8Ic_cvUNs-47">
          <mxGeometry relative="1" as="geometry">
            <mxPoint x="420" y="1010.0000000000002" as="targetPoint" />
          </mxGeometry>
        </mxCell>
        <mxCell id="9wlGWYBTpFo8Ic_cvUNs-41" value="ch1 == &#39;(&#39; || ch1 == &#39;)&#39;" style="strokeWidth=2;html=1;shape=mxgraph.flowchart.decision;whiteSpace=wrap;" vertex="1" parent="1">
          <mxGeometry x="350" y="865" width="140" height="100" as="geometry" />
        </mxCell>
        <mxCell id="9wlGWYBTpFo8Ic_cvUNs-42" value="ch1 = 2;" style="rounded=1;whiteSpace=wrap;html=1;absoluteArcSize=1;arcSize=14;strokeWidth=2;" vertex="1" parent="1">
          <mxGeometry x="540" y="610" width="100" height="50" as="geometry" />
        </mxCell>
        <mxCell id="9wlGWYBTpFo8Ic_cvUNs-43" value="ch1 = 1;" style="rounded=1;whiteSpace=wrap;html=1;absoluteArcSize=1;arcSize=14;strokeWidth=2;" vertex="1" parent="1">
          <mxGeometry x="540" y="750" width="100" height="50" as="geometry" />
        </mxCell>
        <mxCell id="9wlGWYBTpFo8Ic_cvUNs-44" value="ch1 = 0;" style="rounded=1;whiteSpace=wrap;html=1;absoluteArcSize=1;arcSize=14;strokeWidth=2;" vertex="1" parent="1">
          <mxGeometry x="540" y="890" width="100" height="50" as="geometry" />
        </mxCell>
        <mxCell id="9wlGWYBTpFo8Ic_cvUNs-47" value="return ch1 &gt;= ch2 ? true : false;" style="rounded=1;whiteSpace=wrap;html=1;absoluteArcSize=1;arcSize=14;strokeWidth=2;" vertex="1" parent="1">
          <mxGeometry x="335" y="1030" width="170" height="40" as="geometry" />
        </mxCell>
        <mxCell id="9wlGWYBTpFo8Ic_cvUNs-50" style="edgeStyle=orthogonalEdgeStyle;rounded=0;orthogonalLoop=1;jettySize=auto;html=1;entryX=0.5;entryY=0;entryDx=0;entryDy=0;" edge="1" parent="1" source="9wlGWYBTpFo8Ic_cvUNs-48" target="9wlGWYBTpFo8Ic_cvUNs-49">
          <mxGeometry relative="1" as="geometry" />
        </mxCell>
        <mxCell id="9wlGWYBTpFo8Ic_cvUNs-48" value="void PostfixNotationMake(string&amp; str, vector&lt;string&gt;&amp; v, queue&lt;string&gt;&amp; q)" style="rounded=1;whiteSpace=wrap;html=1;absoluteArcSize=1;arcSize=14;strokeWidth=2;" vertex="1" parent="1">
          <mxGeometry x="700" y="25" width="320" height="60" as="geometry" />
        </mxCell>
        <mxCell id="9wlGWYBTpFo8Ic_cvUNs-52" style="edgeStyle=orthogonalEdgeStyle;rounded=0;orthogonalLoop=1;jettySize=auto;html=1;entryX=0.5;entryY=0;entryDx=0;entryDy=0;entryPerimeter=0;" edge="1" parent="1" source="9wlGWYBTpFo8Ic_cvUNs-49" target="9wlGWYBTpFo8Ic_cvUNs-51">
          <mxGeometry relative="1" as="geometry" />
        </mxCell>
        <mxCell id="9wlGWYBTpFo8Ic_cvUNs-49" value="int operandCheck = 0;&#xa;	int operatorCheck = 0;&#xa;	string num;" style="rounded=1;whiteSpace=wrap;html=1;absoluteArcSize=1;arcSize=14;strokeWidth=2;" vertex="1" parent="1">
          <mxGeometry x="765" y="130" width="190" height="70" as="geometry" />
        </mxCell>
        <mxCell id="9wlGWYBTpFo8Ic_cvUNs-56" style="edgeStyle=orthogonalEdgeStyle;rounded=0;orthogonalLoop=1;jettySize=auto;html=1;entryX=0.5;entryY=0;entryDx=0;entryDy=0;" edge="1" parent="1" source="9wlGWYBTpFo8Ic_cvUNs-51" target="9wlGWYBTpFo8Ic_cvUNs-55">
          <mxGeometry relative="1" as="geometry" />
        </mxCell>
        <mxCell id="9wlGWYBTpFo8Ic_cvUNs-51" value="(int i = 0; i++)" style="strokeWidth=2;html=1;shape=mxgraph.flowchart.loop_limit;whiteSpace=wrap;" vertex="1" parent="1">
          <mxGeometry x="790" y="245" width="140" height="60" as="geometry" />
        </mxCell>
        <mxCell id="9wlGWYBTpFo8Ic_cvUNs-53" value="" style="strokeWidth=2;html=1;shape=mxgraph.flowchart.loop_limit;whiteSpace=wrap;rotation=-180;" vertex="1" parent="1">
          <mxGeometry x="812.5" y="1460" width="100" height="60" as="geometry" />
        </mxCell>
        <mxCell id="9wlGWYBTpFo8Ic_cvUNs-54" value="&#xa;&lt;span style=&quot;color: rgb(0, 0, 0); font-family: Helvetica; font-size: 12px; font-style: normal; font-variant-ligatures: normal; font-variant-caps: normal; font-weight: 400; letter-spacing: normal; orphans: 2; text-align: center; text-indent: 0px; text-transform: none; widows: 2; word-spacing: 0px; -webkit-text-stroke-width: 0px; background-color: rgb(248, 249, 250); text-decoration-thickness: initial; text-decoration-style: initial; text-decoration-color: initial; float: none; display: inline !important;&quot;&gt;; i &amp;lt; str.length();&lt;/span&gt;&#xa;&#xa;" style="text;html=1;strokeColor=none;fillColor=none;align=center;verticalAlign=middle;whiteSpace=wrap;rounded=0;" vertex="1" parent="1">
          <mxGeometry x="806" y="1475" width="113" height="30" as="geometry" />
        </mxCell>
        <mxCell id="9wlGWYBTpFo8Ic_cvUNs-57" value="true" style="edgeStyle=orthogonalEdgeStyle;rounded=0;orthogonalLoop=1;jettySize=auto;html=1;" edge="1" parent="1" source="9wlGWYBTpFo8Ic_cvUNs-55" target="9wlGWYBTpFo8Ic_cvUNs-58">
          <mxGeometry relative="1" as="geometry">
            <mxPoint x="1010" y="380" as="targetPoint" />
          </mxGeometry>
        </mxCell>
        <mxCell id="9wlGWYBTpFo8Ic_cvUNs-59" style="edgeStyle=orthogonalEdgeStyle;rounded=0;orthogonalLoop=1;jettySize=auto;html=1;entryX=0.5;entryY=0;entryDx=0;entryDy=0;entryPerimeter=0;" edge="1" parent="1" source="9wlGWYBTpFo8Ic_cvUNs-55" target="9wlGWYBTpFo8Ic_cvUNs-60">
          <mxGeometry relative="1" as="geometry">
            <mxPoint x="860" y="450" as="targetPoint" />
          </mxGeometry>
        </mxCell>
        <mxCell id="9wlGWYBTpFo8Ic_cvUNs-55" value="str[i] == &#39;-&#39;&amp;&amp;(i==0|| operatorCheck==1)&amp;&amp; operandCheck==0" style="rhombus;whiteSpace=wrap;html=1;" vertex="1" parent="1">
          <mxGeometry x="755" y="340" width="210" height="80" as="geometry" />
        </mxCell>
        <mxCell id="9wlGWYBTpFo8Ic_cvUNs-58" value="num += str[i];&#xa;			continue;" style="rounded=1;whiteSpace=wrap;html=1;absoluteArcSize=1;arcSize=14;strokeWidth=2;" vertex="1" parent="1">
          <mxGeometry x="1020" y="355" width="110" height="50" as="geometry" />
        </mxCell>
        <mxCell id="9wlGWYBTpFo8Ic_cvUNs-61" value="true" style="edgeStyle=orthogonalEdgeStyle;rounded=0;orthogonalLoop=1;jettySize=auto;html=1;" edge="1" parent="1" source="9wlGWYBTpFo8Ic_cvUNs-60" target="9wlGWYBTpFo8Ic_cvUNs-62">
          <mxGeometry relative="1" as="geometry">
            <mxPoint x="1020" y="510" as="targetPoint" />
          </mxGeometry>
        </mxCell>
        <mxCell id="9wlGWYBTpFo8Ic_cvUNs-64" style="edgeStyle=orthogonalEdgeStyle;rounded=0;orthogonalLoop=1;jettySize=auto;html=1;entryX=0.5;entryY=0;entryDx=0;entryDy=0;entryPerimeter=0;" edge="1" parent="1" source="9wlGWYBTpFo8Ic_cvUNs-60" target="9wlGWYBTpFo8Ic_cvUNs-63">
          <mxGeometry relative="1" as="geometry" />
        </mxCell>
        <mxCell id="9wlGWYBTpFo8Ic_cvUNs-60" value="(str[i] &gt;= &#39;0&#39; &amp;&amp; str[i] &lt;= &#39;9&#39;)|| str[i]==&#39;.&#39;" style="strokeWidth=2;html=1;shape=mxgraph.flowchart.decision;whiteSpace=wrap;" vertex="1" parent="1">
          <mxGeometry x="755" y="460" width="210" height="100" as="geometry" />
        </mxCell>
        <mxCell id="9wlGWYBTpFo8Ic_cvUNs-62" value="operandCheck = 1;&#xa;			num += str[i];&#xa;			continue;" style="rounded=1;whiteSpace=wrap;html=1;absoluteArcSize=1;arcSize=14;strokeWidth=2;" vertex="1" parent="1">
          <mxGeometry x="1020" y="485" width="110" height="50" as="geometry" />
        </mxCell>
        <mxCell id="9wlGWYBTpFo8Ic_cvUNs-65" value="true" style="edgeStyle=orthogonalEdgeStyle;rounded=0;orthogonalLoop=1;jettySize=auto;html=1;" edge="1" parent="1" source="9wlGWYBTpFo8Ic_cvUNs-63" target="9wlGWYBTpFo8Ic_cvUNs-66">
          <mxGeometry relative="1" as="geometry">
            <mxPoint x="980" y="640" as="targetPoint" />
          </mxGeometry>
        </mxCell>
        <mxCell id="9wlGWYBTpFo8Ic_cvUNs-67" style="edgeStyle=orthogonalEdgeStyle;rounded=0;orthogonalLoop=1;jettySize=auto;html=1;" edge="1" parent="1" source="9wlGWYBTpFo8Ic_cvUNs-63" target="9wlGWYBTpFo8Ic_cvUNs-68">
          <mxGeometry relative="1" as="geometry">
            <mxPoint x="860" y="720" as="targetPoint" />
          </mxGeometry>
        </mxCell>
        <mxCell id="9wlGWYBTpFo8Ic_cvUNs-63" value="operandCheck" style="strokeWidth=2;html=1;shape=mxgraph.flowchart.decision;whiteSpace=wrap;" vertex="1" parent="1">
          <mxGeometry x="810" y="600" width="100" height="80" as="geometry" />
        </mxCell>
        <mxCell id="9wlGWYBTpFo8Ic_cvUNs-66" value="q.push(num);&#xa;			num = &quot;&quot;;&#xa;			operandCheck = 0;&#xa;			operatorCheck = 0;" style="rounded=1;whiteSpace=wrap;html=1;absoluteArcSize=1;arcSize=14;strokeWidth=2;" vertex="1" parent="1">
          <mxGeometry x="980" y="605" width="140" height="70" as="geometry" />
        </mxCell>
        <mxCell id="9wlGWYBTpFo8Ic_cvUNs-70" value="false" style="edgeStyle=orthogonalEdgeStyle;rounded=0;orthogonalLoop=1;jettySize=auto;html=1;entryX=0.5;entryY=0;entryDx=0;entryDy=0;entryPerimeter=0;" edge="1" parent="1" source="9wlGWYBTpFo8Ic_cvUNs-68" target="9wlGWYBTpFo8Ic_cvUNs-69">
          <mxGeometry relative="1" as="geometry" />
        </mxCell>
        <mxCell id="9wlGWYBTpFo8Ic_cvUNs-71" value="true" style="edgeStyle=orthogonalEdgeStyle;rounded=0;orthogonalLoop=1;jettySize=auto;html=1;" edge="1" parent="1" source="9wlGWYBTpFo8Ic_cvUNs-68" target="9wlGWYBTpFo8Ic_cvUNs-72">
          <mxGeometry relative="1" as="geometry">
            <mxPoint x="960" y="755" as="targetPoint" />
          </mxGeometry>
        </mxCell>
        <mxCell id="9wlGWYBTpFo8Ic_cvUNs-68" value="(str[i] == &#39;(&#39;)" style="strokeWidth=2;html=1;shape=mxgraph.flowchart.decision;whiteSpace=wrap;" vertex="1" parent="1">
          <mxGeometry x="810" y="720" width="100" height="70" as="geometry" />
        </mxCell>
        <mxCell id="9wlGWYBTpFo8Ic_cvUNs-73" value="true" style="edgeStyle=orthogonalEdgeStyle;rounded=0;orthogonalLoop=1;jettySize=auto;html=1;" edge="1" parent="1" source="9wlGWYBTpFo8Ic_cvUNs-69" target="9wlGWYBTpFo8Ic_cvUNs-74">
          <mxGeometry relative="1" as="geometry">
            <mxPoint x="860" y="930" as="targetPoint" />
          </mxGeometry>
        </mxCell>
        <mxCell id="9wlGWYBTpFo8Ic_cvUNs-86" value="false" style="edgeStyle=orthogonalEdgeStyle;rounded=0;orthogonalLoop=1;jettySize=auto;html=1;entryX=0.5;entryY=0;entryDx=0;entryDy=0;" edge="1" parent="1" source="9wlGWYBTpFo8Ic_cvUNs-69" target="9wlGWYBTpFo8Ic_cvUNs-88">
          <mxGeometry relative="1" as="geometry">
            <mxPoint x="860" y="940" as="targetPoint" />
          </mxGeometry>
        </mxCell>
        <mxCell id="9wlGWYBTpFo8Ic_cvUNs-69" value="str[i] == &#39;)&#39;" style="strokeWidth=2;html=1;shape=mxgraph.flowchart.decision;whiteSpace=wrap;" vertex="1" parent="1">
          <mxGeometry x="810" y="840" width="100" height="60" as="geometry" />
        </mxCell>
        <mxCell id="9wlGWYBTpFo8Ic_cvUNs-72" value="num += str[i];&#xa;			v.push_back(num);&#xa;			num = &quot;&quot;;&#xa;			operatorCheck = 1;&#xa;			continue;" style="rounded=1;whiteSpace=wrap;html=1;absoluteArcSize=1;arcSize=14;strokeWidth=2;" vertex="1" parent="1">
          <mxGeometry x="980" y="705" width="140" height="100" as="geometry" />
        </mxCell>
        <mxCell id="9wlGWYBTpFo8Ic_cvUNs-76" style="edgeStyle=orthogonalEdgeStyle;rounded=0;orthogonalLoop=1;jettySize=auto;html=1;entryX=0.5;entryY=0;entryDx=0;entryDy=0;entryPerimeter=0;" edge="1" parent="1" source="9wlGWYBTpFo8Ic_cvUNs-74" target="9wlGWYBTpFo8Ic_cvUNs-75">
          <mxGeometry relative="1" as="geometry" />
        </mxCell>
        <mxCell id="9wlGWYBTpFo8Ic_cvUNs-74" value="int count = v.size();" style="rounded=1;whiteSpace=wrap;html=1;absoluteArcSize=1;arcSize=14;strokeWidth=2;" vertex="1" parent="1">
          <mxGeometry x="1060" y="850" width="120" height="40" as="geometry" />
        </mxCell>
        <mxCell id="9wlGWYBTpFo8Ic_cvUNs-80" style="edgeStyle=orthogonalEdgeStyle;rounded=0;orthogonalLoop=1;jettySize=auto;html=1;entryX=0.5;entryY=0;entryDx=0;entryDy=0;" edge="1" parent="1" source="9wlGWYBTpFo8Ic_cvUNs-75" target="9wlGWYBTpFo8Ic_cvUNs-79">
          <mxGeometry relative="1" as="geometry" />
        </mxCell>
        <mxCell id="9wlGWYBTpFo8Ic_cvUNs-75" value="int j = 0;&amp;nbsp; j++" style="strokeWidth=2;html=1;shape=mxgraph.flowchart.loop_limit;whiteSpace=wrap;" vertex="1" parent="1">
          <mxGeometry x="1070" y="940" width="100" height="60" as="geometry" />
        </mxCell>
        <mxCell id="9wlGWYBTpFo8Ic_cvUNs-77" value="" style="strokeWidth=2;html=1;shape=mxgraph.flowchart.loop_limit;whiteSpace=wrap;rotation=-180;" vertex="1" parent="1">
          <mxGeometry x="1070" y="1250" width="100" height="60" as="geometry" />
        </mxCell>
        <mxCell id="9wlGWYBTpFo8Ic_cvUNs-78" value="&#xa;&lt;span style=&quot;color: rgb(0, 0, 0); font-family: Helvetica; font-size: 12px; font-style: normal; font-variant-ligatures: normal; font-variant-caps: normal; font-weight: 400; letter-spacing: normal; orphans: 2; text-align: center; text-indent: 0px; text-transform: none; widows: 2; word-spacing: 0px; -webkit-text-stroke-width: 0px; background-color: rgb(248, 249, 250); text-decoration-thickness: initial; text-decoration-style: initial; text-decoration-color: initial; float: none; display: inline !important;&quot;&gt;j &amp;lt; count;&lt;/span&gt;&#xa;&#xa;" style="text;html=1;strokeColor=none;fillColor=none;align=center;verticalAlign=middle;whiteSpace=wrap;rounded=0;" vertex="1" parent="1">
          <mxGeometry x="1090" y="1265" width="60" height="30" as="geometry" />
        </mxCell>
        <mxCell id="9wlGWYBTpFo8Ic_cvUNs-81" value="false" style="edgeStyle=orthogonalEdgeStyle;rounded=0;orthogonalLoop=1;jettySize=auto;html=1;entryX=0.5;entryY=0;entryDx=0;entryDy=0;" edge="1" parent="1" source="9wlGWYBTpFo8Ic_cvUNs-79" target="9wlGWYBTpFo8Ic_cvUNs-84">
          <mxGeometry relative="1" as="geometry">
            <mxPoint x="1120" y="1140" as="targetPoint" />
          </mxGeometry>
        </mxCell>
        <mxCell id="9wlGWYBTpFo8Ic_cvUNs-82" value="true" style="edgeStyle=orthogonalEdgeStyle;rounded=0;orthogonalLoop=1;jettySize=auto;html=1;" edge="1" parent="1" source="9wlGWYBTpFo8Ic_cvUNs-79" target="9wlGWYBTpFo8Ic_cvUNs-83">
          <mxGeometry relative="1" as="geometry">
            <mxPoint x="1225" y="1070" as="targetPoint" />
          </mxGeometry>
        </mxCell>
        <mxCell id="9wlGWYBTpFo8Ic_cvUNs-79" value="v.back()[0] == &#39;(&#39;" style="rhombus;whiteSpace=wrap;html=1;" vertex="1" parent="1">
          <mxGeometry x="1067.5" y="1030" width="105" height="80" as="geometry" />
        </mxCell>
        <mxCell id="9wlGWYBTpFo8Ic_cvUNs-83" value="v.pop_back();&#xa;					break;" style="rounded=1;whiteSpace=wrap;html=1;absoluteArcSize=1;arcSize=14;strokeWidth=2;" vertex="1" parent="1">
          <mxGeometry x="1225" y="1040" width="100" height="60" as="geometry" />
        </mxCell>
        <mxCell id="9wlGWYBTpFo8Ic_cvUNs-85" style="edgeStyle=orthogonalEdgeStyle;rounded=0;orthogonalLoop=1;jettySize=auto;html=1;entryX=0.5;entryY=1;entryDx=0;entryDy=0;entryPerimeter=0;" edge="1" parent="1" source="9wlGWYBTpFo8Ic_cvUNs-84" target="9wlGWYBTpFo8Ic_cvUNs-77">
          <mxGeometry relative="1" as="geometry" />
        </mxCell>
        <mxCell id="9wlGWYBTpFo8Ic_cvUNs-84" value="q.push(v.back());&#xa;					v.pop_back();" style="rounded=1;whiteSpace=wrap;html=1;absoluteArcSize=1;arcSize=14;strokeWidth=2;" vertex="1" parent="1">
          <mxGeometry x="1070" y="1150" width="100" height="50" as="geometry" />
        </mxCell>
        <mxCell id="9wlGWYBTpFo8Ic_cvUNs-87" style="edgeStyle=orthogonalEdgeStyle;rounded=0;orthogonalLoop=1;jettySize=auto;html=1;entryX=0.5;entryY=0;entryDx=0;entryDy=0;entryPerimeter=0;" edge="1" parent="1" source="9wlGWYBTpFo8Ic_cvUNs-88" target="9wlGWYBTpFo8Ic_cvUNs-90">
          <mxGeometry relative="1" as="geometry" />
        </mxCell>
        <mxCell id="9wlGWYBTpFo8Ic_cvUNs-88" value="int count = v.size();" style="rounded=1;whiteSpace=wrap;html=1;absoluteArcSize=1;arcSize=14;strokeWidth=2;" vertex="1" parent="1">
          <mxGeometry x="802.5" y="950" width="120" height="40" as="geometry" />
        </mxCell>
        <mxCell id="9wlGWYBTpFo8Ic_cvUNs-89" style="edgeStyle=orthogonalEdgeStyle;rounded=0;orthogonalLoop=1;jettySize=auto;html=1;entryX=0.5;entryY=0;entryDx=0;entryDy=0;" edge="1" parent="1" source="9wlGWYBTpFo8Ic_cvUNs-90" target="9wlGWYBTpFo8Ic_cvUNs-95">
          <mxGeometry relative="1" as="geometry" />
        </mxCell>
        <mxCell id="9wlGWYBTpFo8Ic_cvUNs-90" value="int j = 0;&amp;nbsp; j++" style="strokeWidth=2;html=1;shape=mxgraph.flowchart.loop_limit;whiteSpace=wrap;" vertex="1" parent="1">
          <mxGeometry x="812.5" y="1040" width="100" height="60" as="geometry" />
        </mxCell>
        <mxCell id="9wlGWYBTpFo8Ic_cvUNs-102" style="edgeStyle=orthogonalEdgeStyle;rounded=0;orthogonalLoop=1;jettySize=auto;html=1;entryX=0.5;entryY=0;entryDx=0;entryDy=0;" edge="1" parent="1" source="9wlGWYBTpFo8Ic_cvUNs-91" target="9wlGWYBTpFo8Ic_cvUNs-98">
          <mxGeometry relative="1" as="geometry" />
        </mxCell>
        <mxCell id="9wlGWYBTpFo8Ic_cvUNs-91" value="" style="strokeWidth=2;html=1;shape=mxgraph.flowchart.loop_limit;whiteSpace=wrap;rotation=-180;" vertex="1" parent="1">
          <mxGeometry x="812.5" y="1250" width="100" height="60" as="geometry" />
        </mxCell>
        <mxCell id="9wlGWYBTpFo8Ic_cvUNs-92" value="&#xa;&lt;span style=&quot;color: rgb(0, 0, 0); font-family: Helvetica; font-size: 12px; font-style: normal; font-variant-ligatures: normal; font-variant-caps: normal; font-weight: 400; letter-spacing: normal; orphans: 2; text-align: center; text-indent: 0px; text-transform: none; widows: 2; word-spacing: 0px; -webkit-text-stroke-width: 0px; background-color: rgb(248, 249, 250); text-decoration-thickness: initial; text-decoration-style: initial; text-decoration-color: initial; float: none; display: inline !important;&quot;&gt;j &amp;lt; count;&lt;/span&gt;&#xa;&#xa;" style="text;html=1;strokeColor=none;fillColor=none;align=center;verticalAlign=middle;whiteSpace=wrap;rounded=0;" vertex="1" parent="1">
          <mxGeometry x="832.5" y="1265" width="60" height="30" as="geometry" />
        </mxCell>
        <mxCell id="9wlGWYBTpFo8Ic_cvUNs-94" value="true" style="edgeStyle=orthogonalEdgeStyle;rounded=0;orthogonalLoop=1;jettySize=auto;html=1;" edge="1" parent="1" source="9wlGWYBTpFo8Ic_cvUNs-95" target="9wlGWYBTpFo8Ic_cvUNs-96">
          <mxGeometry relative="1" as="geometry">
            <mxPoint x="967.5" y="1170" as="targetPoint" />
          </mxGeometry>
        </mxCell>
        <mxCell id="9wlGWYBTpFo8Ic_cvUNs-101" style="edgeStyle=orthogonalEdgeStyle;rounded=0;orthogonalLoop=1;jettySize=auto;html=1;entryX=0.5;entryY=1;entryDx=0;entryDy=0;entryPerimeter=0;" edge="1" parent="1" source="9wlGWYBTpFo8Ic_cvUNs-95" target="9wlGWYBTpFo8Ic_cvUNs-91">
          <mxGeometry relative="1" as="geometry" />
        </mxCell>
        <mxCell id="9wlGWYBTpFo8Ic_cvUNs-95" value="(OperatorCheck(v.back()[0], str[i]))" style="rhombus;whiteSpace=wrap;html=1;" vertex="1" parent="1">
          <mxGeometry x="810" y="1130" width="105" height="80" as="geometry" />
        </mxCell>
        <mxCell id="9wlGWYBTpFo8Ic_cvUNs-96" value="q.push(v.back());&#xa;					v.pop_back();" style="rounded=1;whiteSpace=wrap;html=1;absoluteArcSize=1;arcSize=14;strokeWidth=2;" vertex="1" parent="1">
          <mxGeometry x="955" y="1140" width="100" height="60" as="geometry" />
        </mxCell>
        <mxCell id="9wlGWYBTpFo8Ic_cvUNs-103" style="edgeStyle=orthogonalEdgeStyle;rounded=0;orthogonalLoop=1;jettySize=auto;html=1;entryX=0.5;entryY=1;entryDx=0;entryDy=0;entryPerimeter=0;" edge="1" parent="1" source="9wlGWYBTpFo8Ic_cvUNs-98" target="9wlGWYBTpFo8Ic_cvUNs-53">
          <mxGeometry relative="1" as="geometry" />
        </mxCell>
        <mxCell id="9wlGWYBTpFo8Ic_cvUNs-98" value="num += str[i];&#xa;			v.push_back(num);&#xa;			num = &quot;&quot;;&#xa;			operatorCheck = 1;" style="rounded=1;whiteSpace=wrap;html=1;absoluteArcSize=1;arcSize=14;strokeWidth=2;" vertex="1" parent="1">
          <mxGeometry x="798.75" y="1350" width="127.5" height="60" as="geometry" />
        </mxCell>
        <mxCell id="9wlGWYBTpFo8Ic_cvUNs-105" style="edgeStyle=orthogonalEdgeStyle;rounded=0;orthogonalLoop=1;jettySize=auto;html=1;" edge="1" parent="1" source="9wlGWYBTpFo8Ic_cvUNs-104" target="9wlGWYBTpFo8Ic_cvUNs-106">
          <mxGeometry relative="1" as="geometry">
            <mxPoint x="200" y="1280" as="targetPoint" />
          </mxGeometry>
        </mxCell>
        <mxCell id="9wlGWYBTpFo8Ic_cvUNs-104" value="void PostfixNotation(queue&lt;string&gt; PostFix_Queue)" style="rounded=1;whiteSpace=wrap;html=1;absoluteArcSize=1;arcSize=14;strokeWidth=2;" vertex="1" parent="1">
          <mxGeometry x="60" y="1195" width="280" height="45" as="geometry" />
        </mxCell>
        <mxCell id="9wlGWYBTpFo8Ic_cvUNs-108" style="edgeStyle=orthogonalEdgeStyle;rounded=0;orthogonalLoop=1;jettySize=auto;html=1;" edge="1" parent="1" source="9wlGWYBTpFo8Ic_cvUNs-106" target="9wlGWYBTpFo8Ic_cvUNs-109">
          <mxGeometry relative="1" as="geometry">
            <mxPoint x="200" y="1380" as="targetPoint" />
          </mxGeometry>
        </mxCell>
        <mxCell id="9wlGWYBTpFo8Ic_cvUNs-106" value="vector&lt;string&gt; Operator_Stack;" style="rounded=1;whiteSpace=wrap;html=1;absoluteArcSize=1;arcSize=14;strokeWidth=2;" vertex="1" parent="1">
          <mxGeometry x="115" y="1290" width="170" height="40" as="geometry" />
        </mxCell>
        <mxCell id="9wlGWYBTpFo8Ic_cvUNs-110" style="edgeStyle=orthogonalEdgeStyle;rounded=0;orthogonalLoop=1;jettySize=auto;html=1;" edge="1" parent="1" source="9wlGWYBTpFo8Ic_cvUNs-109" target="9wlGWYBTpFo8Ic_cvUNs-111">
          <mxGeometry relative="1" as="geometry">
            <mxPoint x="200" y="1460" as="targetPoint" />
          </mxGeometry>
        </mxCell>
        <mxCell id="9wlGWYBTpFo8Ic_cvUNs-109" value="!PostFix_Queue.empty()" style="strokeWidth=2;html=1;shape=mxgraph.flowchart.loop_limit;whiteSpace=wrap;" vertex="1" parent="1">
          <mxGeometry x="125" y="1360" width="150" height="60" as="geometry" />
        </mxCell>
        <mxCell id="9wlGWYBTpFo8Ic_cvUNs-112" value="true" style="edgeStyle=orthogonalEdgeStyle;rounded=0;orthogonalLoop=1;jettySize=auto;html=1;" edge="1" parent="1" source="9wlGWYBTpFo8Ic_cvUNs-111" target="9wlGWYBTpFo8Ic_cvUNs-113">
          <mxGeometry relative="1" as="geometry">
            <mxPoint x="360" y="1510" as="targetPoint" />
          </mxGeometry>
        </mxCell>
        <mxCell id="9wlGWYBTpFo8Ic_cvUNs-114" value="false" style="edgeStyle=orthogonalEdgeStyle;rounded=0;orthogonalLoop=1;jettySize=auto;html=1;entryX=0.5;entryY=0;entryDx=0;entryDy=0;entryPerimeter=0;" edge="1" parent="1" source="9wlGWYBTpFo8Ic_cvUNs-111" target="9wlGWYBTpFo8Ic_cvUNs-115">
          <mxGeometry relative="1" as="geometry">
            <mxPoint x="200" y="1600" as="targetPoint" />
          </mxGeometry>
        </mxCell>
        <mxCell id="9wlGWYBTpFo8Ic_cvUNs-111" value="PostFix_Queue.front().size() &gt; 1" style="strokeWidth=2;html=1;shape=mxgraph.flowchart.decision;whiteSpace=wrap;" vertex="1" parent="1">
          <mxGeometry x="105" y="1460" width="190" height="100" as="geometry" />
        </mxCell>
        <mxCell id="9wlGWYBTpFo8Ic_cvUNs-113" value="Operator_Stack.push_back(PostFix_Queue.front());&#xa;			PostFix_Queue.pop();" style="rounded=1;whiteSpace=wrap;html=1;absoluteArcSize=1;arcSize=14;strokeWidth=2;" vertex="1" parent="1">
          <mxGeometry x="360" y="1480" width="295" height="60" as="geometry" />
        </mxCell>
        <mxCell id="9wlGWYBTpFo8Ic_cvUNs-116" value="+" style="edgeStyle=orthogonalEdgeStyle;rounded=0;orthogonalLoop=1;jettySize=auto;html=1;entryX=0.5;entryY=0;entryDx=0;entryDy=0;exitX=0.739;exitY=0.765;exitDx=0;exitDy=0;exitPerimeter=0;" edge="1" parent="1" source="9wlGWYBTpFo8Ic_cvUNs-115" target="9wlGWYBTpFo8Ic_cvUNs-117">
          <mxGeometry relative="1" as="geometry">
            <mxPoint x="570" y="1660" as="targetPoint" />
            <Array as="points">
              <mxPoint x="248" y="1710" />
              <mxPoint x="823" y="1710" />
            </Array>
          </mxGeometry>
        </mxCell>
        <mxCell id="9wlGWYBTpFo8Ic_cvUNs-119" value="-" style="edgeStyle=orthogonalEdgeStyle;rounded=0;orthogonalLoop=1;jettySize=auto;html=1;" edge="1" parent="1" source="9wlGWYBTpFo8Ic_cvUNs-115" target="9wlGWYBTpFo8Ic_cvUNs-118">
          <mxGeometry relative="1" as="geometry" />
        </mxCell>
        <mxCell id="9wlGWYBTpFo8Ic_cvUNs-121" value="*" style="edgeStyle=orthogonalEdgeStyle;rounded=0;orthogonalLoop=1;jettySize=auto;html=1;" edge="1" parent="1" source="9wlGWYBTpFo8Ic_cvUNs-115" target="9wlGWYBTpFo8Ic_cvUNs-120">
          <mxGeometry relative="1" as="geometry">
            <Array as="points">
              <mxPoint x="200" y="1730" />
              <mxPoint x="497" y="1730" />
            </Array>
          </mxGeometry>
        </mxCell>
        <mxCell id="9wlGWYBTpFo8Ic_cvUNs-123" value="/" style="edgeStyle=orthogonalEdgeStyle;rounded=0;orthogonalLoop=1;jettySize=auto;html=1;entryX=0.5;entryY=0;entryDx=0;entryDy=0;exitX=0.885;exitY=0.642;exitDx=0;exitDy=0;exitPerimeter=0;" edge="1" parent="1" source="9wlGWYBTpFo8Ic_cvUNs-115" target="9wlGWYBTpFo8Ic_cvUNs-122">
          <mxGeometry relative="1" as="geometry">
            <Array as="points">
              <mxPoint x="277" y="1680" />
              <mxPoint x="1163" y="1680" />
            </Array>
          </mxGeometry>
        </mxCell>
        <mxCell id="9wlGWYBTpFo8Ic_cvUNs-126" value="default" style="edgeStyle=orthogonalEdgeStyle;rounded=0;orthogonalLoop=1;jettySize=auto;html=1;entryX=0;entryY=0.5;entryDx=0;entryDy=0;" edge="1" parent="1" source="9wlGWYBTpFo8Ic_cvUNs-115" target="9wlGWYBTpFo8Ic_cvUNs-125">
          <mxGeometry relative="1" as="geometry" />
        </mxCell>
        <mxCell id="9wlGWYBTpFo8Ic_cvUNs-115" value="PostFix_Queue.front()[0]" style="strokeWidth=2;html=1;shape=mxgraph.flowchart.decision;whiteSpace=wrap;" vertex="1" parent="1">
          <mxGeometry x="100" y="1610" width="200" height="100" as="geometry" />
        </mxCell>
        <mxCell id="9wlGWYBTpFo8Ic_cvUNs-132" style="edgeStyle=orthogonalEdgeStyle;rounded=0;orthogonalLoop=1;jettySize=auto;html=1;" edge="1" parent="1" source="9wlGWYBTpFo8Ic_cvUNs-117">
          <mxGeometry relative="1" as="geometry">
            <mxPoint x="822.5" y="2040" as="targetPoint" />
          </mxGeometry>
        </mxCell>
        <mxCell id="9wlGWYBTpFo8Ic_cvUNs-117" value="Operator_Stack[Operator_Stack.size() - 2] = to_string(atof(Operator_Stack[Operator_Stack.size() - 2].c_str()) + atof(Operator_Stack[Operator_Stack.size() - 1].c_str()));&#xa;				Operator_Stack.pop_back();&#xa;				PostFix_Queue.pop();" style="rounded=1;whiteSpace=wrap;html=1;absoluteArcSize=1;arcSize=14;strokeWidth=2;" vertex="1" parent="1">
          <mxGeometry x="670" y="1800" width="305" height="100" as="geometry" />
        </mxCell>
        <mxCell id="9wlGWYBTpFo8Ic_cvUNs-134" style="edgeStyle=orthogonalEdgeStyle;rounded=0;orthogonalLoop=1;jettySize=auto;html=1;" edge="1" parent="1" source="9wlGWYBTpFo8Ic_cvUNs-118">
          <mxGeometry relative="1" as="geometry">
            <mxPoint x="820" y="2040" as="targetPoint" />
            <Array as="points">
              <mxPoint x="173" y="1970" />
              <mxPoint x="820" y="1970" />
            </Array>
          </mxGeometry>
        </mxCell>
        <mxCell id="9wlGWYBTpFo8Ic_cvUNs-118" value="Operator_Stack[Operator_Stack.size() - 2] = to_string(atof(Operator_Stack[Operator_Stack.size() - 2].c_str()) - atof(Operator_Stack[Operator_Stack.size() - 1].c_str()));&#xa;				Operator_Stack.pop_back();&#xa;				PostFix_Queue.pop();" style="rounded=1;whiteSpace=wrap;html=1;absoluteArcSize=1;arcSize=14;strokeWidth=2;" vertex="1" parent="1">
          <mxGeometry x="20" y="1800" width="305" height="100" as="geometry" />
        </mxCell>
        <mxCell id="9wlGWYBTpFo8Ic_cvUNs-133" style="edgeStyle=orthogonalEdgeStyle;rounded=0;orthogonalLoop=1;jettySize=auto;html=1;entryX=0.5;entryY=0;entryDx=0;entryDy=0;" edge="1" parent="1" source="9wlGWYBTpFo8Ic_cvUNs-120" target="9wlGWYBTpFo8Ic_cvUNs-129">
          <mxGeometry relative="1" as="geometry">
            <Array as="points">
              <mxPoint x="497" y="1970" />
              <mxPoint x="821" y="1970" />
            </Array>
          </mxGeometry>
        </mxCell>
        <mxCell id="9wlGWYBTpFo8Ic_cvUNs-120" value="&lt;div&gt;Operator_Stack[Operator_Stack.size() - 2] = to_string(atof(Operator_Stack[Operator_Stack.size() - 2].c_str()) * atof(Operator_Stack[Operator_Stack.size() - 1].c_str()));&lt;/div&gt;&lt;div&gt;&lt;span style=&quot;&quot;&gt;				&lt;/span&gt;Operator_Stack.pop_back();&lt;/div&gt;&lt;div&gt;&lt;span style=&quot;&quot;&gt;				&lt;/span&gt;PostFix_Queue.pop();&lt;/div&gt;" style="rounded=1;whiteSpace=wrap;html=1;absoluteArcSize=1;arcSize=14;strokeWidth=2;" vertex="1" parent="1">
          <mxGeometry x="345" y="1800" width="305" height="100" as="geometry" />
        </mxCell>
        <mxCell id="9wlGWYBTpFo8Ic_cvUNs-131" style="edgeStyle=orthogonalEdgeStyle;rounded=0;orthogonalLoop=1;jettySize=auto;html=1;entryX=0.5;entryY=0;entryDx=0;entryDy=0;" edge="1" parent="1" source="9wlGWYBTpFo8Ic_cvUNs-122" target="9wlGWYBTpFo8Ic_cvUNs-129">
          <mxGeometry relative="1" as="geometry">
            <Array as="points">
              <mxPoint x="1143" y="1970" />
              <mxPoint x="821" y="1970" />
            </Array>
          </mxGeometry>
        </mxCell>
        <mxCell id="9wlGWYBTpFo8Ic_cvUNs-122" value="Operator_Stack[Operator_Stack.size() - 2] = to_string(atof(Operator_Stack[Operator_Stack.size() - 2].c_str()) + atof(Operator_Stack[Operator_Stack.size() - 1].c_str()));&#xa;				Operator_Stack.pop_back();&#xa;				PostFix_Queue.pop();" style="rounded=1;whiteSpace=wrap;html=1;absoluteArcSize=1;arcSize=14;strokeWidth=2;" vertex="1" parent="1">
          <mxGeometry x="990" y="1800" width="305" height="100" as="geometry" />
        </mxCell>
        <mxCell id="9wlGWYBTpFo8Ic_cvUNs-124" style="edgeStyle=orthogonalEdgeStyle;rounded=0;orthogonalLoop=1;jettySize=auto;html=1;exitX=0.5;exitY=1;exitDx=0;exitDy=0;" edge="1" parent="1" source="9wlGWYBTpFo8Ic_cvUNs-120" target="9wlGWYBTpFo8Ic_cvUNs-120">
          <mxGeometry relative="1" as="geometry" />
        </mxCell>
        <mxCell id="9wlGWYBTpFo8Ic_cvUNs-128" style="edgeStyle=orthogonalEdgeStyle;rounded=0;orthogonalLoop=1;jettySize=auto;html=1;" edge="1" parent="1" source="9wlGWYBTpFo8Ic_cvUNs-125" target="9wlGWYBTpFo8Ic_cvUNs-129">
          <mxGeometry relative="1" as="geometry">
            <mxPoint x="820" y="2070" as="targetPoint" />
            <Array as="points">
              <mxPoint x="1353" y="1970" />
              <mxPoint x="821" y="1970" />
            </Array>
          </mxGeometry>
        </mxCell>
        <mxCell id="9wlGWYBTpFo8Ic_cvUNs-125" value="Operator_Stack.push_back(PostFix_Queue.front());&#xa;				PostFix_Queue.pop();" style="rounded=1;whiteSpace=wrap;html=1;absoluteArcSize=1;arcSize=14;strokeWidth=2;" vertex="1" parent="1">
          <mxGeometry x="1200" y="1610" width="305" height="100" as="geometry" />
        </mxCell>
        <mxCell id="9wlGWYBTpFo8Ic_cvUNs-129" value="cout &lt;&lt; Operator_Stack[0];" style="rounded=1;whiteSpace=wrap;html=1;absoluteArcSize=1;arcSize=14;strokeWidth=2;" vertex="1" parent="1">
          <mxGeometry x="716.25" y="2040" width="210" height="70" as="geometry" />
        </mxCell>
      </root>
    </mxGraphModel>
  </diagram>
</mxfile>
